# Blender v2.83 (sub 15) OBJ File: '双向通道.blend'
# www.blender.org
mtllib double.mtl
o Cube.023_Cube.009
v 97.172966 -21.493301 193.112198
v 97.172966 -8.656277 193.112198
v 97.172966 -8.656256 61.829372
v 97.172966 -21.493282 61.829369
v 99.185951 -8.656256 61.829372
v 99.185951 -21.493282 61.829369
v 99.185951 -8.656277 193.112198
v 99.185951 -21.493301 193.112198
vt 0.375000 0.000000
vt 0.625000 0.000000
vt 0.625000 0.250000
vt 0.375000 0.250000
vt 0.625000 0.500000
vt 0.375000 0.500000
vt 0.625000 0.750000
vt 0.375000 0.750000
vt 0.625000 1.000000
vt 0.375000 1.000000
vt 0.125000 0.500000
vt 0.125000 0.750000
vt 0.875000 0.500000
vt 0.875000 0.750000
vn -1.0000 -0.0000 0.0000
vn 0.0000 0.0000 -1.0000
vn 1.0000 0.0000 0.0000
vn 0.0000 0.0000 1.0000
vn 0.0000 -1.0000 -0.0000
vn 0.0000 1.0000 0.0000
usemtl None
s 1
f 1/1/1 2/2/1 3/3/1 4/4/1
f 4/4/2 3/3/2 5/5/2 6/6/2
f 6/6/3 5/5/3 7/7/3 8/8/3
f 8/8/4 7/7/4 2/9/4 1/10/4
f 4/11/5 6/6/5 8/8/5 1/12/5
f 5/5/6 3/13/6 2/14/6 7/7/6
o Cube.024_Cube.012
v 98.274574 -17.918297 189.872482
v 98.274574 -15.918297 189.872482
v 98.274574 -15.918297 184.872482
v 98.274574 -17.918297 184.872482
v 113.274574 -15.918297 184.872482
v 113.274574 -17.918297 184.872482
v 113.274574 -15.918297 189.872482
v 113.274574 -17.918297 189.872482
vt 0.375000 0.000000
vt 0.625000 0.000000
vt 0.625000 0.250000
vt 0.375000 0.250000
vt 0.625000 0.500000
vt 0.375000 0.500000
vt 0.625000 0.750000
vt 0.375000 0.750000
vt 0.625000 1.000000
vt 0.375000 1.000000
vt 0.125000 0.500000
vt 0.125000 0.750000
vt 0.875000 0.500000
vt 0.875000 0.750000
vn -1.0000 0.0000 0.0000
vn 0.0000 0.0000 -1.0000
vn 1.0000 0.0000 0.0000
vn 0.0000 0.0000 1.0000
vn 0.0000 -1.0000 0.0000
vn 0.0000 1.0000 0.0000
usemtl Material.022
s 1
f 9/15/7 10/16/7 11/17/7 12/18/7
f 12/18/8 11/17/8 13/19/8 14/20/8
f 14/20/9 13/19/9 15/21/9 16/22/9
f 16/22/10 15/21/10 10/23/10 9/24/10
f 12/25/11 14/20/11 16/22/11 9/26/11
f 13/19/12 11/27/12 10/28/12 15/21/12
o Cube.025_Cube.013
v 98.274574 -17.918278 70.325516
v 98.274574 -15.918278 70.325516
v 98.274574 -15.918278 65.325516
v 98.274574 -17.918278 65.325516
v 113.274574 -15.918278 65.325516
v 113.274574 -17.918278 65.325516
v 113.274574 -15.918278 70.325516
v 113.274574 -17.918278 70.325516
vt 0.375000 0.000000
vt 0.625000 0.000000
vt 0.625000 0.250000
vt 0.375000 0.250000
vt 0.625000 0.500000
vt 0.375000 0.500000
vt 0.625000 0.750000
vt 0.375000 0.750000
vt 0.625000 1.000000
vt 0.375000 1.000000
vt 0.125000 0.500000
vt 0.125000 0.750000
vt 0.875000 0.500000
vt 0.875000 0.750000
vn -1.0000 0.0000 0.0000
vn 0.0000 0.0000 -1.0000
vn 1.0000 0.0000 0.0000
vn 0.0000 0.0000 1.0000
vn 0.0000 -1.0000 0.0000
vn 0.0000 1.0000 0.0000
usemtl Material.023
s 1
f 17/29/13 18/30/13 19/31/13 20/32/13
f 20/32/14 19/31/14 21/33/14 22/34/14
f 22/34/15 21/33/15 23/35/15 24/36/15
f 24/36/16 23/35/16 18/37/16 17/38/16
f 20/39/17 22/34/17 24/36/17 17/40/17
f 21/33/18 19/41/18 18/42/18 23/35/18
o Cube.026_Cube.014
v -16.259935 -17.918297 189.872482
v -16.259935 -15.918297 189.872482
v -16.259935 -15.918297 184.872482
v -16.259935 -17.918297 184.872482
v -1.259935 -15.918297 184.872482
v -1.259935 -17.918297 184.872482
v -1.259935 -15.918297 189.872482
v -1.259935 -17.918297 189.872482
vt 0.375000 0.000000
vt 0.625000 0.000000
vt 0.625000 0.250000
vt 0.375000 0.250000
vt 0.625000 0.500000
vt 0.375000 0.500000
vt 0.625000 0.750000
vt 0.375000 0.750000
vt 0.625000 1.000000
vt 0.375000 1.000000
vt 0.125000 0.500000
vt 0.125000 0.750000
vt 0.875000 0.500000
vt 0.875000 0.750000
vn -1.0000 0.0000 0.0000
vn 0.0000 0.0000 -1.0000
vn 1.0000 0.0000 0.0000
vn 0.0000 0.0000 1.0000
vn 0.0000 -1.0000 0.0000
vn 0.0000 1.0000 0.0000
usemtl Material.025
s 1
f 25/43/19 26/44/19 27/45/19 28/46/19
f 28/46/20 27/45/20 29/47/20 30/48/20
f 30/48/21 29/47/21 31/49/21 32/50/21
f 32/50/22 31/49/22 26/51/22 25/52/22
f 28/53/23 30/48/23 32/50/23 25/54/23
f 29/47/24 27/55/24 26/56/24 31/49/24
o Cube.027_Cube.015
v -16.259935 -19.153643 70.325516
v -16.259935 -17.153643 70.325516
v -16.259935 -17.153643 65.325516
v -16.259935 -19.153643 65.325516
v -1.259935 -17.153643 65.325516
v -1.259935 -19.153643 65.325516
v -1.259935 -17.153643 70.325516
v -1.259935 -19.153643 70.325516
vt 0.375000 0.000000
vt 0.625000 0.000000
vt 0.625000 0.250000
vt 0.375000 0.250000
vt 0.625000 0.500000
vt 0.375000 0.500000
vt 0.625000 0.750000
vt 0.375000 0.750000
vt 0.625000 1.000000
vt 0.375000 1.000000
vt 0.125000 0.500000
vt 0.125000 0.750000
vt 0.875000 0.500000
vt 0.875000 0.750000
vn -1.0000 0.0000 0.0000
vn 0.0000 0.0000 -1.0000
vn 1.0000 0.0000 0.0000
vn 0.0000 0.0000 1.0000
vn 0.0000 -1.0000 0.0000
vn 0.0000 1.0000 0.0000
usemtl Material.026
s 1
f 33/57/25 34/58/25 35/59/25 36/60/25
f 36/60/26 35/59/26 37/61/26 38/62/26
f 38/62/27 37/61/27 39/63/27 40/64/27
f 40/64/28 39/63/28 34/65/28 33/66/28
f 36/67/29 38/62/29 40/64/29 33/68/29
f 37/61/30 35/69/30 34/70/30 39/63/30
o Cube.028_Cube.017
v -2.073567 -22.728666 193.112198
v -2.073567 -9.891642 193.112198
v -2.073567 -9.891621 61.829372
v -2.073567 -22.728647 61.829369
v -0.060588 -9.891621 61.829372
v -0.060588 -22.728647 61.829369
v -0.060588 -9.891642 193.112198
v -0.060588 -22.728666 193.112198
vt 0.375000 0.000000
vt 0.625000 0.000000
vt 0.625000 0.250000
vt 0.375000 0.250000
vt 0.625000 0.500000
vt 0.375000 0.500000
vt 0.625000 0.750000
vt 0.375000 0.750000
vt 0.625000 1.000000
vt 0.375000 1.000000
vt 0.125000 0.500000
vt 0.125000 0.750000
vt 0.875000 0.500000
vt 0.875000 0.750000
vn -1.0000 0.0000 0.0000
vn 0.0000 0.0000 -1.0000
vn 1.0000 -0.0000 0.0000
vn 0.0000 0.0000 1.0000
vn 0.0000 -1.0000 -0.0000
vn 0.0000 1.0000 0.0000
usemtl None
s 1
f 41/71/31 42/72/31 43/73/31 44/74/31
f 44/74/32 43/73/32 45/75/32 46/76/32
f 46/76/33 45/75/33 47/77/33 48/78/33
f 48/78/34 47/77/34 42/79/34 41/80/34
f 44/81/35 46/76/35 48/78/35 41/82/35
f 45/75/36 43/83/36 42/84/36 47/77/36
o Cube.016_Cube.009
v -20.689257 -50.027245 76.007805
v -20.689257 182.025635 76.007805
v -20.689257 -50.027245 63.707603
v -20.689257 182.025635 63.707603
v -9.210649 -50.027245 76.007805
v -9.210649 182.025635 76.007805
v -9.210649 -50.027245 63.707603
v -9.210649 182.025635 63.707603
vt 0.375000 0.000000
vt 0.625000 0.000000
vt 0.625000 0.250000
vt 0.375000 0.250000
vt 0.625000 0.500000
vt 0.375000 0.500000
vt 0.625000 0.750000
vt 0.375000 0.750000
vt 0.625000 1.000000
vt 0.375000 1.000000
vt 0.125000 0.500000
vt 0.125000 0.750000
vt 0.875000 0.500000
vt 0.875000 0.750000
vn -1.0000 0.0000 0.0000
vn 0.0000 0.0000 -1.0000
vn 1.0000 0.0000 0.0000
vn 0.0000 0.0000 1.0000
vn 0.0000 -1.0000 0.0000
vn 0.0000 1.0000 0.0000
usemtl Material.024
s off
f 49/85/37 50/86/37 52/87/37 51/88/37
f 51/88/38 52/87/38 56/89/38 55/90/38
f 55/90/39 56/89/39 54/91/39 53/92/39
f 53/92/40 54/91/40 50/93/40 49/94/40
f 51/95/41 55/90/41 53/92/41 49/96/41
f 56/89/42 52/97/42 50/98/42 54/91/42
o Cube.017_Cube.012
v 103.858566 -50.027245 76.007805
v 103.858566 182.025635 76.007805
v 103.858566 -50.027245 63.707603
v 103.858566 182.025635 63.707603
v 115.337173 -50.027245 76.007805
v 115.337173 182.025635 76.007805
v 115.337173 -50.027245 63.707603
v 115.337173 182.025635 63.707603
vt 0.375000 0.000000
vt 0.625000 0.000000
vt 0.625000 0.250000
vt 0.375000 0.250000
vt 0.625000 0.500000
vt 0.375000 0.500000
vt 0.625000 0.750000
vt 0.375000 0.750000
vt 0.625000 1.000000
vt 0.375000 1.000000
vt 0.125000 0.500000
vt 0.125000 0.750000
vt 0.875000 0.500000
vt 0.875000 0.750000
vn -1.0000 0.0000 0.0000
vn 0.0000 0.0000 -1.0000
vn 1.0000 0.0000 0.0000
vn 0.0000 0.0000 1.0000
vn 0.0000 -1.0000 0.0000
vn 0.0000 1.0000 0.0000
usemtl Material.024
s off
f 57/99/43 58/100/43 60/101/43 59/102/43
f 59/102/44 60/101/44 64/103/44 63/104/44
f 63/104/45 64/103/45 62/105/45 61/106/45
f 61/106/46 62/105/46 58/107/46 57/108/46
f 59/109/47 63/104/47 61/106/47 57/110/47
f 64/103/48 60/111/48 58/112/48 62/105/48
o Cube.018_Cube.013
v -20.689257 -50.027245 192.749863
v -20.689257 182.025635 192.749863
v -20.689257 -50.027245 180.449661
v -20.689257 182.025635 180.449661
v -9.210649 -50.027245 192.749863
v -9.210649 182.025635 192.749863
v -9.210649 -50.027245 180.449661
v -9.210649 182.025635 180.449661
vt 0.375000 0.000000
vt 0.625000 0.000000
vt 0.625000 0.250000
vt 0.375000 0.250000
vt 0.625000 0.500000
vt 0.375000 0.500000
vt 0.625000 0.750000
vt 0.375000 0.750000
vt 0.625000 1.000000
vt 0.375000 1.000000
vt 0.125000 0.500000
vt 0.125000 0.750000
vt 0.875000 0.500000
vt 0.875000 0.750000
vn -1.0000 0.0000 0.0000
vn 0.0000 0.0000 -1.0000
vn 1.0000 0.0000 0.0000
vn 0.0000 0.0000 1.0000
vn 0.0000 -1.0000 0.0000
vn 0.0000 1.0000 0.0000
usemtl Material.024
s off
f 65/113/49 66/114/49 68/115/49 67/116/49
f 67/116/50 68/115/50 72/117/50 71/118/50
f 71/118/51 72/117/51 70/119/51 69/120/51
f 69/120/52 70/119/52 66/121/52 65/122/52
f 67/123/53 71/118/53 69/120/53 65/124/53
f 72/117/54 68/125/54 66/126/54 70/119/54
o Cube.019_Cube.014
v 103.858566 -50.027245 192.749863
v 103.858566 182.025635 192.749863
v 103.858566 -50.027245 180.449661
v 103.858566 182.025635 180.449661
v 115.337173 -50.027245 192.749863
v 115.337173 182.025635 192.749863
v 115.337173 -50.027245 180.449661
v 115.337173 182.025635 180.449661
vt 0.375000 0.000000
vt 0.625000 0.000000
vt 0.625000 0.250000
vt 0.375000 0.250000
vt 0.625000 0.500000
vt 0.375000 0.500000
vt 0.625000 0.750000
vt 0.375000 0.750000
vt 0.625000 1.000000
vt 0.375000 1.000000
vt 0.125000 0.500000
vt 0.125000 0.750000
vt 0.875000 0.500000
vt 0.875000 0.750000
vn -1.0000 0.0000 0.0000
vn 0.0000 0.0000 -1.0000
vn 1.0000 0.0000 0.0000
vn 0.0000 0.0000 1.0000
vn 0.0000 -1.0000 0.0000
vn 0.0000 1.0000 0.0000
usemtl Material.024
s off
f 73/127/55 74/128/55 76/129/55 75/130/55
f 75/130/56 76/129/56 80/131/56 79/132/56
f 79/132/57 80/131/57 78/133/57 77/134/57
f 77/134/58 78/133/58 74/135/58 73/136/58
f 75/137/59 79/132/59 77/134/59 73/138/59
f 80/131/60 76/139/60 74/140/60 78/133/60
o Cube.028_Cube.001
v 112.941589 -22.728643 82.495796
v 112.941589 -9.891619 82.495796
v -18.341232 -9.891613 82.495804
v -18.341232 -22.728640 82.495804
v -18.341232 -9.891613 80.482826
v -18.341232 -22.728640 80.482826
v 112.941589 -9.891619 80.482819
v 112.941589 -22.728643 80.482819
vt 0.375000 0.000000
vt 0.625000 0.000000
vt 0.625000 0.250000
vt 0.375000 0.250000
vt 0.625000 0.500000
vt 0.375000 0.500000
vt 0.625000 0.750000
vt 0.375000 0.750000
vt 0.625000 1.000000
vt 0.375000 1.000000
vt 0.125000 0.500000
vt 0.125000 0.750000
vt 0.875000 0.500000
vt 0.875000 0.750000
vn 0.0000 0.0000 1.0000
vn -1.0000 0.0000 0.0000
vn -0.0000 0.0000 -1.0000
vn 1.0000 0.0000 0.0000
vn -0.0000 -1.0000 0.0000
vn 0.0000 1.0000 0.0000
usemtl None
s 1
f 81/141/61 82/142/61 83/143/61 84/144/61
f 84/144/62 83/143/62 85/145/62 86/146/62
f 86/146/63 85/145/63 87/147/63 88/148/63
f 88/148/64 87/147/64 82/149/64 81/150/64
f 84/151/65 86/146/65 88/148/65 81/152/65
f 85/145/66 83/153/66 82/154/66 87/147/66
o Cube.028_Cube.002
v 112.941589 -22.728643 175.148224
v 112.941589 -9.891619 175.148224
v -18.341232 -9.891613 175.148224
v -18.341232 -22.728640 175.148224
v -18.341232 -9.891613 173.135254
v -18.341232 -22.728640 173.135254
v 112.941589 -9.891619 173.135239
v 112.941589 -22.728643 173.135239
vt 0.375000 0.000000
vt 0.625000 0.000000
vt 0.625000 0.250000
vt 0.375000 0.250000
vt 0.625000 0.500000
vt 0.375000 0.500000
vt 0.625000 0.750000
vt 0.375000 0.750000
vt 0.625000 1.000000
vt 0.375000 1.000000
vt 0.125000 0.500000
vt 0.125000 0.750000
vt 0.875000 0.500000
vt 0.875000 0.750000
vn 0.0000 0.0000 1.0000
vn -1.0000 0.0000 0.0000
vn -0.0000 0.0000 -1.0000
vn 1.0000 0.0000 0.0000
vn -0.0000 -1.0000 0.0000
vn 0.0000 1.0000 0.0000
usemtl None
s 1
f 89/155/67 90/156/67 91/157/67 92/158/67
f 92/158/68 91/157/68 93/159/68 94/160/68
f 94/160/69 93/159/69 95/161/69 96/162/69
f 96/162/70 95/161/70 90/163/70 89/164/70
f 92/165/71 94/160/71 96/162/71 89/166/71
f 93/159/72 91/167/72 90/168/72 95/161/72
