# Blender v2.83 (sub 15) OBJ File: '托盘适用.blend'
# www.blender.org
mtllib tuopan.mtl
o Cube.158_Cube.29057
v -3.648831 -0.344809 4.560286
v -3.648831 1.655191 4.560286
v -3.124789 -0.344809 4.560286
v -3.124789 1.655191 4.560286
v -3.648832 -0.344809 -3.996984
v -3.648832 1.655191 -3.996984
v -3.124789 -0.344809 -3.996984
v -3.124789 1.655191 -3.996984
vt 0.375000 0.000000
vt 0.375000 0.250000
vt 0.625000 0.250000
vt 0.625000 0.000000
vt 0.375000 0.500000
vt 0.625000 0.500000
vt 0.375000 0.750000
vt 0.625000 0.750000
vt 0.375000 1.000000
vt 0.625000 1.000000
vt 0.125000 0.500000
vt 0.125000 0.750000
vt 0.875000 0.750000
vt 0.875000 0.500000
vn -0.5773 -0.5773 0.5773
vn 0.5773 -0.5773 0.5773
vn 0.5773 0.5773 0.5773
vn -0.5773 0.5773 0.5773
vn 0.5773 -0.5773 -0.5773
vn 0.5773 0.5773 -0.5773
vn -0.5773 -0.5773 -0.5773
vn -0.5773 0.5773 -0.5773
usemtl Material.034
s 1
f 1/1/1 3/2/2 4/3/3 2/4/4
f 3/2/2 7/5/5 8/6/6 4/3/3
f 7/5/5 5/7/7 6/8/8 8/6/6
f 5/7/7 1/9/1 2/10/4 6/8/8
f 3/11/2 1/12/1 5/7/7 7/5/5
f 8/6/6 6/8/8 2/13/4 4/14/3
o Cube.171_Cube.29058
v 3.271396 -0.344809 4.560286
v 3.271396 1.655191 4.560286
v 3.795438 -0.344809 4.560286
v 3.795438 1.655191 4.560286
v 3.271395 -0.344809 -3.996984
v 3.271395 1.655191 -3.996984
v 3.795438 -0.344809 -3.996984
v 3.795438 1.655191 -3.996984
vt 0.375000 0.000000
vt 0.375000 0.250000
vt 0.625000 0.250000
vt 0.625000 0.000000
vt 0.375000 0.500000
vt 0.625000 0.500000
vt 0.375000 0.750000
vt 0.625000 0.750000
vt 0.375000 1.000000
vt 0.625000 1.000000
vt 0.125000 0.500000
vt 0.125000 0.750000
vt 0.875000 0.750000
vt 0.875000 0.500000
vn -0.5773 -0.5773 0.5773
vn 0.5773 -0.5773 0.5773
vn 0.5773 0.5773 0.5773
vn -0.5773 0.5773 0.5773
vn 0.5773 -0.5773 -0.5773
vn 0.5773 0.5773 -0.5773
vn -0.5773 -0.5773 -0.5773
vn -0.5773 0.5773 -0.5773
usemtl Material.033
s 1
f 9/15/9 11/16/10 12/17/11 10/18/12
f 11/16/10 15/19/13 16/20/14 12/17/11
f 15/19/13 13/21/15 14/22/16 16/20/14
f 13/21/15 9/23/9 10/24/12 14/22/16
f 11/25/10 9/26/9 13/21/15 15/19/13
f 16/20/14 14/22/16 10/27/12 12/28/11
o Plane.007_Plane.010
v -3.466830 1.678654 -2.064855
v 3.508639 1.678654 -2.064855
v -3.466830 1.678654 -3.841814
v 3.508639 1.678654 -3.841814
vt 0.000000 0.000000
vt 1.000000 0.000000
vt 1.000000 1.000000
vt 0.000000 1.000000
vn 0.0000 1.0000 0.0000
usemtl Material.030
s off
f 17/29/17 18/30/17 20/31/17 19/32/17
o Plane.009_Plane.011
v -3.466830 1.678654 1.168360
v 3.508639 1.678654 1.168360
v -3.466830 1.678654 -0.608598
v 3.508639 1.678654 -0.608598
vt 0.000000 0.000000
vt 1.000000 0.000000
vt 1.000000 1.000000
vt 0.000000 1.000000
vn 0.0000 1.0000 0.0000
usemtl Material.031
s off
f 21/33/18 22/34/18 24/35/18 23/36/18
o Plane.010_Plane.012
v -3.466830 1.678654 4.344874
v 3.508639 1.678654 4.344874
v -3.466830 1.678654 2.567915
v 3.508639 1.678654 2.567915
vt 0.000000 0.000000
vt 1.000000 0.000000
vt 1.000000 1.000000
vt 0.000000 1.000000
vn 0.0000 1.0000 0.0000
usemtl Material.032
s off
f 25/37/19 26/38/19 28/39/19 27/40/19
